<svg xmlns="http://www.w3.org/2000/svg" width="720" height="440" viewBox="0 0 720 440"><defs><marker id="arrow" viewBox="0 0 10 10" refX="8" refY="5" markerWidth="6" markerHeight="6" orient="auto-start-reverse"><path d="M0 0L10 5L0 10" fill="#7d93ab"/></marker></defs><rect width="720" height="440" fill="#f4f7fb"/><g font-family="Arial,sans-serif" fill="#34485e"><text x="34" y="43" font-size="20" fill="#34485e" >TEMPORAL SELF-SIMILARITY</text><text x="34" y="69" font-size="14" fill="#72839a" >Find structure in how video changes over time.</text><rect x="48" y="110" width="20" height="20" fill="#286e9d"/><rect x="48" y="131" width="20" height="20" fill="#7eadd0"/><rect x="48" y="152" width="20" height="20" fill="#7eadd0"/><rect x="48" y="173" width="20" height="20" fill="#7eadd0"/><rect x="48" y="194" width="20" height="20" fill="#dde8f3"/><rect x="48" y="215" width="20" height="20" fill="#dde8f3"/><rect x="48" y="236" width="20" height="20" fill="#dde8f3"/><rect x="48" y="257" width="20" height="20" fill="#dde8f3"/><rect x="48" y="278" width="20" height="20" fill="#dde8f3"/><rect x="48" y="299" width="20" height="20" fill="#dde8f3"/><rect x="48" y="320" width="20" height="20" fill="#dde8f3"/><rect x="48" y="341" width="20" height="20" fill="#dde8f3"/><rect x="69" y="110" width="20" height="20" fill="#7eadd0"/><rect x="69" y="131" width="20" height="20" fill="#286e9d"/><rect x="69" y="152" width="20" height="20" fill="#7eadd0"/><rect x="69" y="173" width="20" height="20" fill="#7eadd0"/><rect x="69" y="194" width="20" height="20" fill="#dde8f3"/><rect x="69" y="215" width="20" height="20" fill="#dde8f3"/><rect x="69" y="236" width="20" height="20" fill="#dde8f3"/><rect x="69" y="257" width="20" height="20" fill="#dde8f3"/><rect x="69" y="278" width="20" height="20" fill="#dde8f3"/><rect x="69" y="299" width="20" height="20" fill="#dde8f3"/><rect x="69" y="320" width="20" height="20" fill="#dde8f3"/><rect x="69" y="341" width="20" height="20" fill="#dde8f3"/><rect x="90" y="110" width="20" height="20" fill="#7eadd0"/><rect x="90" y="131" width="20" height="20" fill="#7eadd0"/><rect x="90" y="152" width="20" height="20" fill="#286e9d"/><rect x="90" y="173" width="20" height="20" fill="#7eadd0"/><rect x="90" y="194" width="20" height="20" fill="#dde8f3"/><rect x="90" y="215" width="20" height="20" fill="#dde8f3"/><rect x="90" y="236" width="20" height="20" fill="#dde8f3"/><rect x="90" y="257" width="20" height="20" fill="#dde8f3"/><rect x="90" y="278" width="20" height="20" fill="#dde8f3"/><rect x="90" y="299" width="20" height="20" fill="#dde8f3"/><rect x="90" y="320" width="20" height="20" fill="#dde8f3"/><rect x="90" y="341" width="20" height="20" fill="#dde8f3"/><rect x="111" y="110" width="20" height="20" fill="#7eadd0"/><rect x="111" y="131" width="20" height="20" fill="#7eadd0"/><rect x="111" y="152" width="20" height="20" fill="#7eadd0"/><rect x="111" y="173" width="20" height="20" fill="#286e9d"/><rect x="111" y="194" width="20" height="20" fill="#dde8f3"/><rect x="111" y="215" width="20" height="20" fill="#dde8f3"/><rect x="111" y="236" width="20" height="20" fill="#dde8f3"/><rect x="111" y="257" width="20" height="20" fill="#dde8f3"/><rect x="111" y="278" width="20" height="20" fill="#dde8f3"/><rect x="111" y="299" width="20" height="20" fill="#dde8f3"/><rect x="111" y="320" width="20" height="20" fill="#dde8f3"/><rect x="111" y="341" width="20" height="20" fill="#dde8f3"/><rect x="132" y="110" width="20" height="20" fill="#dde8f3"/><rect x="132" y="131" width="20" height="20" fill="#dde8f3"/><rect x="132" y="152" width="20" height="20" fill="#dde8f3"/><rect x="132" y="173" width="20" height="20" fill="#dde8f3"/><rect x="132" y="194" width="20" height="20" fill="#286e9d"/><rect x="132" y="215" width="20" height="20" fill="#7eadd0"/><rect x="132" y="236" width="20" height="20" fill="#7eadd0"/><rect x="132" y="257" width="20" height="20" fill="#7eadd0"/><rect x="132" y="278" width="20" height="20" fill="#dde8f3"/><rect x="132" y="299" width="20" height="20" fill="#dde8f3"/><rect x="132" y="320" width="20" height="20" fill="#dde8f3"/><rect x="132" y="341" width="20" height="20" fill="#dde8f3"/><rect x="153" y="110" width="20" height="20" fill="#dde8f3"/><rect x="153" y="131" width="20" height="20" fill="#dde8f3"/><rect x="153" y="152" width="20" height="20" fill="#dde8f3"/><rect x="153" y="173" width="20" height="20" fill="#dde8f3"/><rect x="153" y="194" width="20" height="20" fill="#7eadd0"/><rect x="153" y="215" width="20" height="20" fill="#286e9d"/><rect x="153" y="236" width="20" height="20" fill="#7eadd0"/><rect x="153" y="257" width="20" height="20" fill="#7eadd0"/><rect x="153" y="278" width="20" height="20" fill="#dde8f3"/><rect x="153" y="299" width="20" height="20" fill="#dde8f3"/><rect x="153" y="320" width="20" height="20" fill="#dde8f3"/><rect x="153" y="341" width="20" height="20" fill="#dde8f3"/><rect x="174" y="110" width="20" height="20" fill="#dde8f3"/><rect x="174" y="131" width="20" height="20" fill="#dde8f3"/><rect x="174" y="152" width="20" height="20" fill="#dde8f3"/><rect x="174" y="173" width="20" height="20" fill="#dde8f3"/><rect x="174" y="194" width="20" height="20" fill="#7eadd0"/><rect x="174" y="215" width="20" height="20" fill="#7eadd0"/><rect x="174" y="236" width="20" height="20" fill="#286e9d"/><rect x="174" y="257" width="20" height="20" fill="#7eadd0"/><rect x="174" y="278" width="20" height="20" fill="#dde8f3"/><rect x="174" y="299" width="20" height="20" fill="#dde8f3"/><rect x="174" y="320" width="20" height="20" fill="#dde8f3"/><rect x="174" y="341" width="20" height="20" fill="#dde8f3"/><rect x="195" y="110" width="20" height="20" fill="#dde8f3"/><rect x="195" y="131" width="20" height="20" fill="#dde8f3"/><rect x="195" y="152" width="20" height="20" fill="#dde8f3"/><rect x="195" y="173" width="20" height="20" fill="#dde8f3"/><rect x="195" y="194" width="20" height="20" fill="#7eadd0"/><rect x="195" y="215" width="20" height="20" fill="#7eadd0"/><rect x="195" y="236" width="20" height="20" fill="#7eadd0"/><rect x="195" y="257" width="20" height="20" fill="#286e9d"/><rect x="195" y="278" width="20" height="20" fill="#dde8f3"/><rect x="195" y="299" width="20" height="20" fill="#dde8f3"/><rect x="195" y="320" width="20" height="20" fill="#dde8f3"/><rect x="195" y="341" width="20" height="20" fill="#dde8f3"/><rect x="216" y="110" width="20" height="20" fill="#dde8f3"/><rect x="216" y="131" width="20" height="20" fill="#dde8f3"/><rect x="216" y="152" width="20" height="20" fill="#dde8f3"/><rect x="216" y="173" width="20" height="20" fill="#dde8f3"/><rect x="216" y="194" width="20" height="20" fill="#dde8f3"/><rect x="216" y="215" width="20" height="20" fill="#dde8f3"/><rect x="216" y="236" width="20" height="20" fill="#dde8f3"/><rect x="216" y="257" width="20" height="20" fill="#dde8f3"/><rect x="216" y="278" width="20" height="20" fill="#286e9d"/><rect x="216" y="299" width="20" height="20" fill="#7eadd0"/><rect x="216" y="320" width="20" height="20" fill="#7eadd0"/><rect x="216" y="341" width="20" height="20" fill="#7eadd0"/><rect x="237" y="110" width="20" height="20" fill="#dde8f3"/><rect x="237" y="131" width="20" height="20" fill="#dde8f3"/><rect x="237" y="152" width="20" height="20" fill="#dde8f3"/><rect x="237" y="173" width="20" height="20" fill="#dde8f3"/><rect x="237" y="194" width="20" height="20" fill="#dde8f3"/><rect x="237" y="215" width="20" height="20" fill="#dde8f3"/><rect x="237" y="236" width="20" height="20" fill="#dde8f3"/><rect x="237" y="257" width="20" height="20" fill="#dde8f3"/><rect x="237" y="278" width="20" height="20" fill="#7eadd0"/><rect x="237" y="299" width="20" height="20" fill="#286e9d"/><rect x="237" y="320" width="20" height="20" fill="#7eadd0"/><rect x="237" y="341" width="20" height="20" fill="#7eadd0"/><rect x="258" y="110" width="20" height="20" fill="#dde8f3"/><rect x="258" y="131" width="20" height="20" fill="#dde8f3"/><rect x="258" y="152" width="20" height="20" fill="#dde8f3"/><rect x="258" y="173" width="20" height="20" fill="#dde8f3"/><rect x="258" y="194" width="20" height="20" fill="#dde8f3"/><rect x="258" y="215" width="20" height="20" fill="#dde8f3"/><rect x="258" y="236" width="20" height="20" fill="#dde8f3"/><rect x="258" y="257" width="20" height="20" fill="#dde8f3"/><rect x="258" y="278" width="20" height="20" fill="#7eadd0"/><rect x="258" y="299" width="20" height="20" fill="#7eadd0"/><rect x="258" y="320" width="20" height="20" fill="#286e9d"/><rect x="258" y="341" width="20" height="20" fill="#7eadd0"/><rect x="279" y="110" width="20" height="20" fill="#dde8f3"/><rect x="279" y="131" width="20" height="20" fill="#dde8f3"/><rect x="279" y="152" width="20" height="20" fill="#dde8f3"/><rect x="279" y="173" width="20" height="20" fill="#dde8f3"/><rect x="279" y="194" width="20" height="20" fill="#dde8f3"/><rect x="279" y="215" width="20" height="20" fill="#dde8f3"/><rect x="279" y="236" width="20" height="20" fill="#dde8f3"/><rect x="279" y="257" width="20" height="20" fill="#dde8f3"/><rect x="279" y="278" width="20" height="20" fill="#7eadd0"/><rect x="279" y="299" width="20" height="20" fill="#7eadd0"/><rect x="279" y="320" width="20" height="20" fill="#7eadd0"/><rect x="279" y="341" width="20" height="20" fill="#286e9d"/><text x="110" y="392" font-size="16" fill="#34485e" >Time →</text><path d="M316 228L372 228" stroke="#7d93ab" stroke-width="2.5" fill="none" marker-end="url(#arrow)"/><rect x="390" y="179" width="285" height="98" rx="9" fill="#e1ebf7" stroke="#c6d5e5"/><text x="532.5" y="234.0" font-size="17" fill="#34485e" text-anchor="middle">Lightweight boundary model</text><path d="M530 287L530 324" stroke="#7d93ab" stroke-width="2.5" fill="none" marker-end="url(#arrow)"/><text x="413" y="360" font-size="16" fill="#34485e" >Event 1  |  Event 2  |  Event 3</text></g></svg>